<?xml version="1.0" encoding="utf-8"?>
<!-- Generator: Adobe Illustrator 26.3.1, SVG Export Plug-In . SVG Version: 6.00 Build 0)  -->
<svg version="1.1" baseProfile="tiny" id="Layer_1" xmlns="http://www.w3.org/2000/svg" xmlns:xlink="http://www.w3.org/1999/xlink"
	 x="0px" y="0px" viewBox="0 0 612 792" overflow="visible" xml:space="preserve">
<g>
	<g>
		<path d="M337.87,311.13l-2.09,5.68h-1.29l6.03-16.42h1.5l6.29,16.42h-1.38l-2.13-5.68H337.87z M344.37,309.96
			c-1.83-4.88-2.77-7.22-3.1-8.33h-0.02c-0.4,1.24-1.45,4.15-2.93,8.33H344.37z"/>
		<path d="M369.7,312.42c-0.77,2.6-2.7,4.57-6.17,4.57c-4.71,0-7.2-3.75-7.2-8.37c0-4.43,2.44-8.47,7.22-8.47
			c3.54,0,5.63,1.97,6.17,4.71h-1.27c-0.75-2.13-2.13-3.54-4.97-3.54c-4.08,0-5.79,3.73-5.79,7.27c0,3.52,1.69,7.22,5.89,7.22
			c2.67,0,4.03-1.38,4.85-3.4H369.7z"/>
		<path d="M382.3,310.92c0,3.26-1.81,6.17-5.3,6.17c-3.17,0-5.14-2.6-5.14-6.14c0-3.35,1.85-6.14,5.25-6.14
			C380.24,304.8,382.3,307.24,382.3,310.92z M373.11,310.95c0,2.79,1.5,5.04,3.99,5.04c2.53,0,3.96-2.09,3.96-5.04
			c0-2.77-1.41-5.04-4.01-5.04C374.37,305.9,373.11,308.13,373.11,310.95z"/>
		<path d="M394.4,299.53v13.91c0,1.13,0,2.2,0.02,3.38h-1.12c-0.05-0.28-0.07-1.38-0.07-1.97c-0.59,1.43-1.9,2.25-3.94,2.25
			c-3.05,0-4.88-2.49-4.88-6c0-3.61,1.99-6.29,5.18-6.29c2.35,0,3.28,1.01,3.64,1.76v-7.04H394.4z M385.66,311.04
			c0,3.21,1.67,4.95,3.68,4.95c3.1,0,3.94-2.13,3.94-5.32c0-3.03-0.73-4.76-3.73-4.76C387.23,305.9,385.66,307.76,385.66,311.04z"/>
		<path d="M398.25,299.53h1.17v2.27h-1.17V299.53z M398.25,305.08h1.17v11.73h-1.17V305.08z"/>
		<path d="M403.27,308.04c0-1.03,0-2.02-0.02-2.96h1.15c0.05,0.38,0.07,1.9,0.05,2.23c0.52-1.2,1.48-2.51,3.89-2.51
			c2.09,0,3.94,1.17,3.94,4.41v7.6h-1.17v-7.41c0-2.09-0.87-3.45-2.91-3.45c-2.79,0-3.75,2.32-3.75,4.88v5.98h-1.17V308.04z"/>
		<path d="M425.08,316.01c0,3.75-1.67,5.72-5.07,5.72c-3.05,0-4.32-1.71-4.6-3.49h1.2c0.42,1.62,1.76,2.39,3.45,2.39
			c3.05,0,3.89-1.97,3.89-4.95v-1.22c-0.63,1.52-1.78,2.35-3.92,2.35c-2.74,0-4.85-2.23-4.85-5.86c0-3.94,2.25-6.14,5.02-6.14
			c2.39,0,3.42,1.13,3.75,2.06c0.02-0.68,0.05-1.5,0.07-1.78h1.1c0,0.42-0.05,2.28-0.05,3.4V316.01z M416.43,310.9
			c0,2.79,1.48,4.81,3.73,4.81c2.93,0,3.82-1.95,3.82-5c0-3.1-0.94-4.81-3.75-4.81C417.53,305.9,416.43,308.23,416.43,310.9z"/>
		<path d="M447.79,312.42c-0.77,2.6-2.7,4.57-6.17,4.57c-4.71,0-7.2-3.75-7.2-8.37c0-4.43,2.44-8.47,7.22-8.47
			c3.54,0,5.63,1.97,6.17,4.71h-1.27c-0.75-2.13-2.13-3.54-4.97-3.54c-4.08,0-5.79,3.73-5.79,7.27c0,3.52,1.69,7.22,5.89,7.22
			c2.67,0,4.03-1.38,4.85-3.4H447.79z"/>
		<path d="M452.02,299.53v7.53c0.66-1.22,1.81-2.25,3.87-2.25c1.67,0,3.96,0.84,3.96,4.55v7.46h-1.17v-7.22c0-2.32-1.06-3.63-3-3.63
			c-2.32,0-3.66,1.43-3.66,4.32v6.54h-1.17v-17.28H452.02z"/>
		<path d="M471.6,314.58c0,1.03,0.09,1.85,0.16,2.23h-1.13c-0.09-0.28-0.16-0.8-0.21-1.81c-0.4,0.87-1.43,2.09-3.85,2.09
			c-2.72,0-3.89-1.76-3.89-3.52c0-2.58,1.99-3.75,5.51-3.75c0.99,0,1.76,0,2.23,0v-1.2c0-1.17-0.35-2.74-3.03-2.74
			c-2.37,0-2.72,1.24-2.98,2.2h-1.17c0.14-1.29,0.94-3.28,4.17-3.28c2.67,0,4.17,1.13,4.17,3.71V314.58z M470.45,310.83
			c-0.45,0-1.52,0-2.3,0c-2.6,0-4.22,0.68-4.22,2.7c0,1.48,1.05,2.49,2.7,2.49c3.35,0,3.82-2.23,3.82-4.76V310.83z"/>
		<path d="M475.47,316.81v-17.28h1.17v17.28H475.47z"/>
		<path d="M480.49,316.81v-17.28h1.17v17.28H480.49z"/>
		<path d="M485.77,311.09c0.02,3.03,1.55,4.9,3.8,4.9c2.2,0,2.96-1.24,3.38-2.2h1.2c-0.49,1.55-1.74,3.31-4.62,3.31
			c-3.56,0-4.95-3.07-4.95-6.05c0-3.35,1.67-6.24,5.09-6.24c3.61,0,4.76,3.12,4.76,5.32c0,0.33,0,0.66-0.02,0.96H485.77z
			 M493.21,310.06c-0.02-2.32-1.29-4.15-3.59-4.15c-2.42,0-3.52,1.69-3.78,4.15H493.21z"/>
		<path d="M497.29,308.04c0-1.03,0-2.02-0.02-2.96h1.15c0.05,0.38,0.07,1.9,0.05,2.23c0.52-1.2,1.48-2.51,3.89-2.51
			c2.09,0,3.94,1.17,3.94,4.41v7.6h-1.17v-7.41c0-2.09-0.87-3.45-2.91-3.45c-2.79,0-3.75,2.32-3.75,4.88v5.98h-1.17V308.04z"/>
		<path d="M519.1,316.01c0,3.75-1.67,5.72-5.07,5.72c-3.05,0-4.32-1.71-4.6-3.49h1.2c0.42,1.62,1.76,2.39,3.45,2.39
			c3.05,0,3.89-1.97,3.89-4.95v-1.22c-0.63,1.52-1.78,2.35-3.92,2.35c-2.74,0-4.85-2.23-4.85-5.86c0-3.94,2.25-6.14,5.02-6.14
			c2.39,0,3.42,1.13,3.75,2.06c0.02-0.68,0.05-1.5,0.07-1.78h1.1c0,0.42-0.05,2.28-0.05,3.4V316.01z M510.45,310.9
			c0,2.79,1.48,4.81,3.73,4.81c2.93,0,3.82-1.95,3.82-5c0-3.1-0.94-4.81-3.75-4.81C511.55,305.9,510.45,308.23,510.45,310.9z"/>
		<path d="M523.21,311.09c0.02,3.03,1.55,4.9,3.8,4.9c2.2,0,2.96-1.24,3.38-2.2h1.2c-0.49,1.55-1.74,3.31-4.62,3.31
			c-3.56,0-4.95-3.07-4.95-6.05c0-3.35,1.67-6.24,5.09-6.24c3.61,0,4.76,3.12,4.76,5.32c0,0.33,0,0.66-0.02,0.96H523.21z
			 M530.64,310.06c-0.02-2.32-1.29-4.15-3.59-4.15c-2.42,0-3.52,1.69-3.78,4.15H530.64z"/>
	</g>
	<path d="M145.07,220.01v19.96h-7.13c-1.15-4.18-2.62-7.5-4.4-9.98c-1.78-2.47-3.84-4.24-6.2-5.3c-2.35-1.06-5.19-1.59-8.5-1.59
		c-4.95,0-9.36,1.65-13.22,4.94c-3.87,3.29-6.91,8.24-9.11,14.84c-2.21,6.6-3.31,14.59-3.31,23.96c0,9.41,0.91,17.45,2.74,24.1
		c1.83,6.65,4.51,11.67,8.07,15.06c3.55,3.39,7.93,5.08,13.11,5.08c3.94,0,7.16-0.56,9.65-1.69c2.5-1.13,4.6-2.92,6.3-5.37
		c1.7-2.45,3.33-6.05,4.86-10.81h7.13v20.6c-4.52,1.2-9.14,2.1-13.87,2.7c-4.73,0.6-9.93,0.9-15.6,0.9
		c-12.2,0-21.42-4.13-27.67-12.39c-6.24-8.26-9.37-20.58-9.37-36.96c0-10.28,1.62-19.28,4.86-27.02c3.24-7.73,8.01-13.71,14.3-17.94
		c6.29-4.23,13.81-6.34,22.55-6.34c4.37,0,8.4,0.23,12.1,0.68C136.09,217.91,140.31,218.76,145.07,220.01z"/>
	<path d="M227.15,217.92v21.76h-7.06c-0.72-2.35-1.47-4.42-2.23-6.2c-0.77-1.78-1.56-3.27-2.38-4.47c-0.82-1.2-1.72-2.16-2.7-2.88
		c-0.99-0.72-2.15-1.21-3.49-1.48c-1.35-0.26-2.95-0.4-4.83-0.4h-22.77v37.75h15.42c2.11,0,3.77-0.3,4.97-0.9
		c1.2-0.6,2.2-1.62,2.99-3.06c0.79-1.44,1.55-3.7,2.27-6.77h6.77v27.67h-6.77c-0.67-2.88-1.42-5.06-2.23-6.52
		c-0.82-1.46-1.79-2.51-2.92-3.13c-1.13-0.62-2.82-0.94-5.08-0.94h-15.42v41.57h22.41c2.35,0,4.26-0.2,5.73-0.61
		c1.46-0.41,2.73-1.1,3.78-2.09c1.06-0.98,1.99-2.27,2.81-3.85c0.82-1.59,1.5-3.23,2.05-4.94c0.55-1.7,1.31-4.19,2.27-7.46h7.13
		l-1.37,25.29h-66.72v-3.53c2.98-0.77,4.97-1.62,5.98-2.56c1.01-0.94,1.67-2.27,1.98-4c0.31-1.73,0.47-4.37,0.47-7.93v-62.32
		c0-3.31-0.12-5.73-0.36-7.24c-0.24-1.51-0.64-2.69-1.19-3.53c-0.55-0.84-1.29-1.51-2.2-2.02s-2.47-1.07-4.68-1.69v-3.53H227.15z"/>
	<path d="M299.62,277.29c1.73,2.88,3.18,5.4,4.36,7.56c1.18,2.16,2.39,4.59,3.64,7.28h0.94c-0.24-2.93-0.46-8.75-0.65-17.47
		c-0.19-8.72-0.29-16.58-0.29-23.6v-15.13c0-3.31-0.1-5.74-0.29-7.28c-0.19-1.54-0.54-2.71-1.04-3.53c-0.5-0.82-1.2-1.48-2.09-1.98
		s-2.44-1.07-4.65-1.69v-3.53h25.94v3.53c-2.16,0.58-3.69,1.1-4.58,1.58c-0.89,0.48-1.61,1.11-2.16,1.87
		c-0.55,0.77-0.97,1.92-1.26,3.46s-0.43,4.06-0.43,7.56v80.76h-9.01l-40.13-67.29c-2.5-4.18-4.28-7.23-5.33-9.15
		c-1.06-1.92-2.04-3.82-2.95-5.69h-1.22c0.34,3.7,0.58,10.39,0.72,20.06c0.14,9.68,0.22,19.32,0.22,28.93v14.7
		c0,3.22,0.11,5.57,0.32,7.06c0.22,1.49,0.58,2.67,1.08,3.53c0.5,0.86,1.25,1.59,2.23,2.16c0.98,0.58,2.58,1.15,4.79,1.73v3.53
		h-26.3v-3.53c2.98-0.77,4.97-1.62,5.98-2.56c1.01-0.94,1.67-2.27,1.98-4c0.31-1.73,0.47-4.37,0.47-7.93v-62.32
		c0-3.31-0.12-5.73-0.36-7.24c-0.24-1.51-0.64-2.69-1.19-3.53c-0.55-0.84-1.29-1.51-2.2-2.02s-2.47-1.07-4.68-1.69v-3.53h22.55
		L299.62,277.29z"/>
	<path d="M333.42,217.92h52.5v16.89h-4.76c-0.71-2.78-1.42-4.98-2.11-6.6c-0.7-1.62-1.43-2.85-2.21-3.69
		c-0.78-0.84-1.61-1.44-2.5-1.8c-0.89-0.36-2.22-0.53-4-0.53h-6.16v49.69c0,1.91,0.1,3.43,0.32,4.56c0.21,1.13,0.53,2.03,0.97,2.69
		c0.44,0.66,1.03,1.18,1.77,1.55c0.74,0.37,1.91,0.74,3.49,1.09v2.38h-22.18v-2.38c0.97-0.23,1.83-0.47,2.57-0.73
		c0.74-0.26,1.35-0.57,1.82-0.95c0.47-0.37,0.86-0.85,1.16-1.43c0.31-0.58,0.55-1.37,0.73-2.38c0.18-1,0.27-2.47,0.27-4.42v-49.69
		H349c-1.52,0-2.77,0.15-3.76,0.44c-0.99,0.29-1.9,0.9-2.74,1.82c-0.84,0.92-1.61,2.23-2.31,3.93c-0.7,1.7-1.35,3.84-1.96,6.43h-4.8
		V217.92z"/>
	<path d="M443.87,261.55c0,3.48-0.32,6.48-0.96,9.01c-0.61,2.4-1.52,4.52-2.73,6.37c-1.12,1.66-2.51,3.08-4.17,4.24
		c-1.66,1.17-3.67,2.08-6.04,2.75c-2.36,0.67-5.14,1.01-8.34,1.01c-3.87,0-7.18-0.43-9.94-1.29c-2.76-0.86-5.05-2.28-6.85-4.24
		s-3.11-4.28-3.9-6.95c-0.8-2.67-1.2-6.06-1.2-10.18v-31.53c0-2.49-0.08-4.18-0.24-5.05c-0.16-0.88-0.39-1.57-0.69-2.08
		c-0.3-0.51-0.74-0.95-1.32-1.32c-0.58-0.37-1.65-0.76-3.21-1.17v-2.35h20.12v2.35c-1.79,0.45-3.04,0.95-3.74,1.51
		c-0.7,0.56-1.18,1.4-1.44,2.52c-0.26,1.12-0.38,2.99-0.38,5.61v33.92c0,3.1,0.33,5.7,0.98,7.81c0.65,2.11,1.57,3.75,2.76,4.91
		c1.18,1.17,2.59,2.01,4.22,2.54c1.63,0.53,3.66,0.79,6.09,0.79c2.24,0,4.2-0.39,5.89-1.17c1.69-0.78,3.11-1.97,4.24-3.57
		c1.13-1.6,1.91-3.56,2.32-5.89c0.41-2.33,0.62-5.46,0.62-9.39v-29.95c0-2.78-0.14-4.68-0.41-5.7c-0.27-1.02-0.72-1.8-1.34-2.35
		c-0.62-0.54-1.91-1.07-3.86-1.58v-2.35h19.12v2.35c-1.85,0.48-3.12,1.01-3.81,1.58c-0.69,0.58-1.16,1.41-1.41,2.49
		c-0.26,1.09-0.38,2.94-0.38,5.56V261.55z"/>
	<path d="M527.77,221.12c-1.41,0.35-2.42,0.7-3.04,1.05c-0.62,0.35-1.12,0.79-1.49,1.32c-0.37,0.53-0.64,1.32-0.81,2.37
		c-0.18,1.05-0.26,2.68-0.26,4.89v41.44c0,2.14,0.07,3.71,0.22,4.7c0.14,0.99,0.38,1.77,0.72,2.35c0.34,0.58,0.83,1.05,1.49,1.44
		c0.65,0.38,1.72,0.77,3.19,1.15v2.35h-19.98v-2.35c1.82-0.45,3.08-0.96,3.78-1.53c0.7-0.58,1.18-1.42,1.44-2.54
		c0.26-1.12,0.38-2.97,0.38-5.56v-18.35c0-4.82,0.07-9.7,0.22-14.64c0.14-4.93,0.31-8.31,0.5-10.13h-0.81l-18.97,47.48h-5.51
		l-17.63-48.25h-0.81c0.16,1.95,0.31,5.48,0.46,10.59c0.14,5.11,0.22,10.37,0.22,15.76v17.54c0,2.14,0.07,3.71,0.22,4.7
		c0.14,0.99,0.38,1.77,0.72,2.35s0.83,1.05,1.48,1.44s1.72,0.77,3.19,1.15v2.35h-17.49v-2.35c1.98-0.51,3.31-1.08,3.98-1.7
		c0.67-0.62,1.11-1.51,1.32-2.66c0.21-1.15,0.31-2.91,0.31-5.27v-41.44c0-2.2-0.08-3.81-0.24-4.82c-0.16-1.01-0.42-1.79-0.79-2.35
		c-0.37-0.56-0.86-1.01-1.46-1.34c-0.61-0.34-1.64-0.71-3.11-1.13v-2.35h17.11l16.82,46.62l18.49-46.62h16.19V221.12z"/>
</g>
<rect x="66.26" y="188.1" fill="none" stroke="#000000" stroke-width="4" stroke-miterlimit="10" width="479.49" height="154.97"/>
</svg>
