<?xml version="1.0" encoding="utf-8"?>
<!-- Generator: Adobe Illustrator 26.5.0, SVG Export Plug-In . SVG Version: 6.00 Build 0)  -->
<svg version="1.1" id="Layer_1" xmlns="http://www.w3.org/2000/svg" xmlns:xlink="http://www.w3.org/1999/xlink" x="0px" y="0px"
	 viewBox="0 0 800 600" style="enable-background:new 0 0 800 600;" xml:space="preserve">
<style type="text/css">
	.st0{fill:#FFFFFF;}
	.st1{fill:#DE1F26;}
</style>
<g>
	<path class="st0" d="M368,240.8c0.3-19.3,14.6-35.1,33-38.1l3.4-23.2c-36.3-0.8-46.6,21.6-49.2,36.7
		c-13.9,79.7-46.9,317.3-46.9,317.3l44.9,0.8l37.1-257.4C376.9,270.4,367.7,256.6,368,240.8z"/>
	<path class="st1" d="M371.6,102l-3,20.9l20.8,0.2l1.6-6.8l33.3,0.6L412,202.7c18,3.9,31.3,20,31,39.1c-0.4,21.7-18.3,39-40,38.6
		c-0.7,0-1.5-0.1-2.2-0.1l-14.3,99.1c67,2.1,68.5-23.4,71.7-44.2c6.4-41.9,33.5-231,33.5-231L371.6,102z"/>
</g>
</svg>
