<?xml version="1.0" encoding="utf-8"?>
<!-- Generator: Adobe Illustrator 27.0.1, SVG Export Plug-In . SVG Version: 6.00 Build 0)  -->
<svg version="1.1" baseProfile="tiny" id="Layer_1" xmlns="http://www.w3.org/2000/svg" xmlns:xlink="http://www.w3.org/1999/xlink"
	 x="0px" y="0px" viewBox="0 0 792 612" overflow="visible" xml:space="preserve">
<g>
	<path fill="#ED1C24" d="M417.69,213.25h-22.18c-3.13,0-5.69-2.56-5.69-5.69s2.56-5.54,5.69-5.54h56.44c3.13,0,5.54,2.42,5.54,5.54
		s-2.42,5.69-5.54,5.69h-22.18v83.31c0,3.27-2.7,6.11-6.11,6.11c-3.27,0-5.97-2.84-5.97-6.11V213.25z"/>
	<path fill="#ED1C24" d="M516.49,203.3c1.56-1.71,3.27-2.42,4.98-2.42c3.27,0,5.97,2.7,5.97,6.11v89.56c0,3.27-2.7,6.11-5.97,6.11
		c-3.41,0-6.11-2.84-6.11-6.11V276.8h-25.59c-3.13,0-5.54-2.42-5.54-5.54s2.42-5.69,5.54-5.69h25.59V222.2l-65.54,78.33
		c-1,1.14-2.84,2.13-4.41,2.13c-3.13,0-5.69-2.56-5.69-5.69c0-1.28,0.28-2.42,1.42-3.7L516.49,203.3z"/>
	<path fill="#ED1C24" d="M543.49,251.77c0-28.57,22.32-51.18,50.61-51.18c15.92,0,29.71,7.25,38.53,17.91
		c1.14,1.28,1.71,2.84,1.71,4.27c0,3.27-2.7,5.97-6.11,5.97c-1.56,0-3.27-0.99-4.83-2.42c-6.82-8.53-17.06-14.22-29.29-14.22
		c-21.32,0-38.1,17.49-38.1,39.66c0,22.04,16.78,39.52,38.1,39.52c12.23,0,22.46-5.69,29.29-14.07c1.56-1.56,3.27-2.42,4.83-2.42
		c3.41,0,6.11,2.56,6.11,5.97c0,1.28-0.57,2.99-1.71,4.12c-8.81,10.8-22.6,18.06-38.53,18.06
		C565.81,302.95,543.49,280.35,543.49,251.77z"/>
	<path fill="#ED1C24" d="M647.27,251.77c0-28.57,22.32-51.18,50.61-51.18c28.29,0,50.61,22.6,50.61,51.18
		c0,28.58-22.32,51.18-50.61,51.18C669.59,302.95,647.27,280.35,647.27,251.77z M736.12,251.77c0-22.18-16.92-39.66-38.24-39.66
		c-21.32,0-38.1,17.49-38.1,39.66c0,22.04,16.78,39.52,38.1,39.52C719.2,291.3,736.12,273.81,736.12,251.77z"/>
</g>
<g>
	<path d="M365.52,353.45c0-17.19,13.42-30.78,30.44-30.78c9.58,0,17.87,4.36,23.17,10.77c0.68,0.77,1.03,1.71,1.03,2.57
		c0,1.97-1.62,3.59-3.68,3.59c-0.94,0-1.97-0.6-2.91-1.45c-4.1-5.13-10.26-8.55-17.61-8.55c-12.83,0-22.92,10.52-22.92,23.86
		c0,13.25,10.09,23.77,22.92,23.77c7.35,0,13.51-3.42,17.61-8.47c0.94-0.94,1.97-1.45,2.91-1.45c2.05,0,3.68,1.54,3.68,3.59
		c0,0.77-0.34,1.8-1.03,2.48c-5.3,6.5-13.6,10.86-23.17,10.86C378.95,384.23,365.52,370.64,365.52,353.45z"/>
	<path d="M468.39,324.29c0.94-1.03,1.97-1.45,2.99-1.45c1.97,0,3.59,1.62,3.59,3.68v53.87c0,1.97-1.62,3.68-3.59,3.68
		c-2.05,0-3.68-1.71-3.68-3.68V368.5h-15.39c-1.88,0-3.33-1.45-3.33-3.33s1.45-3.42,3.33-3.42h15.39v-26.08l-39.42,47.11
		c-0.6,0.68-1.71,1.28-2.65,1.28c-1.88,0-3.42-1.54-3.42-3.42c0-0.77,0.17-1.45,0.86-2.22L468.39,324.29z"/>
	<path d="M498.83,330.28h-13.34c-1.88,0-3.42-1.54-3.42-3.42s1.54-3.33,3.42-3.33h33.95c1.88,0,3.33,1.45,3.33,3.33
		s-1.45,3.42-3.33,3.42H506.1v50.11c0,1.97-1.62,3.68-3.68,3.68c-1.97,0-3.59-1.71-3.59-3.68V330.28z"/>
</g>
<g>
	<path d="M545.93,365.82h-1.67l-2.33-6.12h-9.37c-0.34,0.96-0.7,1.98-1.1,3.05c-0.39,1.07-0.77,2.1-1.13,3.07h-1.48
		c0.63-1.65,1.24-3.26,1.85-4.83s1.21-3.14,1.82-4.7s1.21-3.13,1.82-4.7s1.23-3.18,1.85-4.82h1.97L545.93,365.82z M541.53,358.6
		l-4.42-10.59l-4.19,10.59H541.53z"/>
	<path d="M578.38,351.87c-0.13-0.57-0.37-1.1-0.71-1.59c-0.35-0.49-0.78-0.92-1.3-1.29c-0.52-0.37-1.12-0.65-1.8-0.86
		c-0.68-0.21-1.41-0.31-2.18-0.31c-1.1,0-2.1,0.18-3,0.54c-0.9,0.36-1.66,0.89-2.3,1.59s-1.12,1.58-1.46,2.63
		c-0.34,1.05-0.51,2.27-0.51,3.66c0,1.39,0.17,2.62,0.51,3.68c0.34,1.06,0.83,1.95,1.46,2.67s1.39,1.26,2.28,1.63
		c0.89,0.37,1.88,0.56,2.97,0.56c1.65,0,3-0.37,4.07-1.1c1.07-0.74,1.73-1.81,1.98-3.23h1.44c-0.14,0.9-0.42,1.71-0.85,2.43
		c-0.43,0.71-0.97,1.31-1.62,1.8c-0.65,0.49-1.4,0.86-2.24,1.11c-0.85,0.26-1.76,0.38-2.75,0.38c-1.34,0-2.55-0.23-3.63-0.7
		c-1.07-0.47-1.99-1.13-2.74-1.99s-1.33-1.9-1.74-3.12c-0.41-1.22-0.61-2.59-0.61-4.11c0-1.51,0.2-2.86,0.61-4.07
		c0.41-1.21,0.99-2.23,1.75-3.09c0.76-0.85,1.68-1.51,2.75-1.97s2.28-0.69,3.61-0.69c0.92,0,1.79,0.13,2.62,0.4s1.57,0.64,2.23,1.12
		c0.66,0.48,1.22,1.06,1.67,1.72c0.45,0.67,0.77,1.4,0.94,2.2H578.38z"/>
	<path d="M588.97,351.99c0.92,0,1.74,0.16,2.49,0.48c0.74,0.32,1.37,0.78,1.9,1.39c0.52,0.61,0.92,1.35,1.2,2.23
		c0.28,0.88,0.42,1.86,0.42,2.97c0,1.12-0.14,2.13-0.43,3.01c-0.28,0.88-0.69,1.63-1.21,2.23s-1.15,1.07-1.9,1.39
		c-0.74,0.32-1.57,0.48-2.47,0.48s-1.72-0.16-2.46-0.47c-0.74-0.31-1.37-0.77-1.89-1.38c-0.52-0.61-0.93-1.35-1.22-2.23
		c-0.29-0.88-0.43-1.89-0.43-3.03c0-1.11,0.14-2.11,0.43-2.98s0.69-1.61,1.21-2.22c0.52-0.6,1.15-1.06,1.9-1.38
		S588.07,351.99,588.97,351.99z M588.97,364.78c0.68,0,1.31-0.12,1.87-0.36s1.05-0.6,1.45-1.08c0.41-0.48,0.72-1.08,0.95-1.79
		s0.34-1.54,0.34-2.5c0-0.94-0.11-1.77-0.34-2.48s-0.54-1.3-0.95-1.77c-0.41-0.47-0.89-0.82-1.45-1.06s-1.19-0.36-1.87-0.36
		c-0.7,0-1.32,0.12-1.89,0.36s-1.05,0.59-1.45,1.06c-0.41,0.47-0.72,1.06-0.94,1.77c-0.22,0.71-0.33,1.54-0.33,2.48
		c0,0.95,0.11,1.78,0.33,2.5c0.22,0.71,0.53,1.31,0.94,1.79c0.41,0.48,0.89,0.84,1.45,1.08S588.28,364.78,588.97,364.78z"/>
	<path d="M607.48,363.96c-0.42,0.49-0.83,0.88-1.23,1.17s-0.79,0.51-1.17,0.67s-0.74,0.26-1.1,0.3c-0.35,0.05-0.69,0.07-1.02,0.07
		c-0.85,0-1.59-0.17-2.24-0.5c-0.65-0.34-1.19-0.81-1.63-1.42c-0.44-0.61-0.77-1.34-1-2.2c-0.23-0.86-0.34-1.81-0.34-2.87
		c0-1.11,0.14-2.11,0.41-3s0.65-1.64,1.13-2.26c0.48-0.62,1.05-1.1,1.7-1.43c0.66-0.33,1.36-0.5,2.11-0.5
		c0.32,0,0.66,0.02,0.99,0.05s0.68,0.11,1.04,0.22c0.36,0.11,0.73,0.28,1.12,0.5c0.39,0.22,0.79,0.52,1.21,0.89v-6.87h1.39v19.04
		h-1.39V363.96z M607.48,355.33c-0.63-0.65-1.28-1.14-1.96-1.46c-0.68-0.32-1.43-0.49-2.25-0.49c-0.63,0-1.19,0.12-1.7,0.36
		c-0.5,0.24-0.94,0.6-1.3,1.08c-0.36,0.48-0.64,1.08-0.83,1.81c-0.2,0.72-0.3,1.57-0.3,2.55c0,1.83,0.35,3.22,1.06,4.17
		c0.71,0.95,1.69,1.43,2.96,1.43c0.83,0,1.6-0.23,2.3-0.69c0.7-0.46,1.37-1.14,2.02-2.04V355.33z"/>
	<path d="M614.92,365.82h-1.39v-13.48h1.39V365.82z M614.94,348.95h-1.39v-2.17h1.39V348.95z"/>
	<path d="M620.76,354.34c0.45-0.53,0.9-0.96,1.33-1.27c0.43-0.31,0.86-0.55,1.27-0.71c0.41-0.16,0.8-0.26,1.17-0.3
		s0.72-0.06,1.04-0.06c2.77,0,4.16,1.63,4.16,4.9v8.92h-1.39v-8.8c0-0.63-0.06-1.17-0.17-1.63c-0.11-0.46-0.29-0.83-0.54-1.13
		c-0.25-0.3-0.57-0.52-0.97-0.66c-0.4-0.14-0.89-0.22-1.47-0.22c-0.77,0-1.52,0.23-2.25,0.68c-0.74,0.45-1.46,1.09-2.18,1.91v9.84
		h-1.39v-13.48h1.39V354.34z"/>
	<path d="M644.49,365.02c0,1.08-0.12,2-0.35,2.76c-0.23,0.76-0.58,1.38-1.03,1.85c-0.46,0.48-1.03,0.82-1.73,1.04
		c-0.7,0.22-1.5,0.33-2.42,0.33c-0.77,0-1.46-0.08-2.07-0.25c-0.61-0.17-1.14-0.41-1.58-0.72c-0.44-0.31-0.79-0.7-1.03-1.17
		c-0.25-0.46-0.39-0.99-0.43-1.58h1.39c0.06,0.8,0.39,1.39,0.99,1.77c0.6,0.38,1.5,0.57,2.68,0.57c0.7,0,1.3-0.08,1.83-0.25
		s0.96-0.44,1.3-0.83c0.35-0.38,0.61-0.89,0.79-1.51c0.18-0.63,0.27-1.4,0.27-2.31v-0.85c-0.45,0.53-0.88,0.95-1.28,1.26
		c-0.4,0.31-0.79,0.54-1.16,0.7c-0.37,0.16-0.73,0.26-1.07,0.3c-0.34,0.04-0.68,0.06-1,0.06c-0.85,0-1.59-0.17-2.24-0.5
		c-0.65-0.34-1.19-0.81-1.63-1.42c-0.44-0.61-0.77-1.34-1-2.2c-0.23-0.86-0.34-1.81-0.34-2.87c0-1.11,0.14-2.11,0.41-3
		s0.65-1.64,1.13-2.26s1.05-1.1,1.7-1.43s1.36-0.5,2.11-0.5c0.32,0,0.66,0.02,1.01,0.07c0.35,0.05,0.71,0.13,1.08,0.25
		s0.75,0.29,1.13,0.5c0.38,0.21,0.77,0.48,1.15,0.8v-1.27h1.39V365.02z M643.1,355.33c-0.63-0.65-1.28-1.14-1.96-1.46
		c-0.68-0.32-1.43-0.49-2.25-0.49c-0.63,0-1.19,0.12-1.7,0.36s-0.94,0.6-1.3,1.08c-0.36,0.48-0.64,1.08-0.83,1.81
		s-0.3,1.57-0.3,2.55c0,1.83,0.35,3.22,1.06,4.17c0.71,0.95,1.69,1.43,2.96,1.43c0.83,0,1.6-0.23,2.3-0.69
		c0.7-0.46,1.37-1.14,2.02-2.04V355.33z"/>
	<path d="M664.9,346.78h6.92c0.93,0,1.82,0.08,2.68,0.23c0.86,0.15,1.61,0.43,2.27,0.83s1.18,0.94,1.57,1.63
		c0.39,0.68,0.58,1.55,0.58,2.61c0,1.87-0.59,3.29-1.77,4.26s-2.9,1.46-5.16,1.46h-5.7v8.03h-1.39V346.78z M666.3,356.39h5.76
		c0.97,0,1.8-0.09,2.49-0.28c0.68-0.19,1.24-0.46,1.68-0.82c0.43-0.36,0.75-0.8,0.95-1.33c0.2-0.53,0.3-1.14,0.3-1.83
		c0-0.85-0.15-1.53-0.44-2.05s-0.7-0.92-1.2-1.21c-0.5-0.28-1.09-0.47-1.75-0.57c-0.66-0.09-1.36-0.14-2.09-0.14h-5.69V356.39z"/>
	<path d="M688.88,353.42c-0.13-0.02-0.27-0.03-0.42-0.03c-0.14,0-0.31,0-0.5,0c-0.39,0-0.78,0.08-1.15,0.24s-0.72,0.37-1.06,0.63
		c-0.34,0.26-0.65,0.56-0.94,0.89c-0.29,0.33-0.54,0.67-0.75,1.02v9.65h-1.39v-13.48h1.39v1.86c0.39-0.46,0.79-0.84,1.17-1.13
		c0.39-0.29,0.77-0.52,1.13-0.68c0.37-0.16,0.72-0.27,1.05-0.32s0.64-0.08,0.92-0.08c0.09,0,0.18,0,0.26,0.01s0.17,0.01,0.28,0.03
		V353.42z"/>
	<path d="M696.69,351.99c0.92,0,1.74,0.16,2.49,0.48c0.74,0.32,1.37,0.78,1.9,1.39c0.52,0.61,0.92,1.35,1.2,2.23
		c0.28,0.88,0.42,1.86,0.42,2.97c0,1.12-0.14,2.13-0.43,3.01c-0.28,0.88-0.69,1.63-1.21,2.23s-1.15,1.07-1.9,1.39
		c-0.74,0.32-1.57,0.48-2.47,0.48c-0.9,0-1.72-0.16-2.46-0.47c-0.74-0.31-1.37-0.77-1.89-1.38c-0.52-0.61-0.93-1.35-1.22-2.23
		c-0.29-0.88-0.43-1.89-0.43-3.03c0-1.11,0.14-2.11,0.43-2.98s0.69-1.61,1.21-2.22c0.52-0.6,1.15-1.06,1.9-1.38
		S695.79,351.99,696.69,351.99z M696.69,364.78c0.68,0,1.31-0.12,1.87-0.36s1.05-0.6,1.45-1.08c0.41-0.48,0.72-1.08,0.95-1.79
		s0.34-1.54,0.34-2.5c0-0.94-0.11-1.77-0.34-2.48s-0.54-1.3-0.95-1.77c-0.41-0.47-0.89-0.82-1.45-1.06s-1.19-0.36-1.87-0.36
		c-0.7,0-1.32,0.12-1.89,0.36s-1.05,0.59-1.45,1.06c-0.41,0.47-0.72,1.06-0.94,1.77c-0.22,0.71-0.33,1.54-0.33,2.48
		c0,0.95,0.11,1.78,0.33,2.5c0.22,0.71,0.53,1.31,0.94,1.79c0.41,0.48,0.89,0.84,1.45,1.08S696,364.78,696.69,364.78z"/>
	<path d="M707.88,366.39c0,0.96-0.08,1.74-0.23,2.34c-0.15,0.6-0.36,1.06-0.63,1.4c-0.27,0.34-0.59,0.57-0.97,0.69
		c-0.38,0.12-0.81,0.18-1.27,0.18c-0.39,0-0.75-0.02-1.08-0.05v-1.48c0.07,0.01,0.14,0.02,0.21,0.02c0.06,0,0.12,0,0.17,0
		c0.49,0,0.89-0.03,1.2-0.1c0.31-0.07,0.56-0.21,0.73-0.43c0.17-0.22,0.3-0.54,0.37-0.97c0.07-0.42,0.1-0.98,0.1-1.68v-14h1.39
		V366.39z M707.88,348.95h-1.39v-2.17h1.39V348.95z"/>
	<path d="M717.79,366.17c-0.94,0-1.79-0.16-2.56-0.48s-1.42-0.78-1.97-1.39s-0.98-1.35-1.28-2.23c-0.3-0.88-0.45-1.88-0.45-3.01
		c0-1.09,0.14-2.07,0.43-2.95c0.29-0.88,0.7-1.62,1.23-2.23s1.17-1.08,1.9-1.4c0.73-0.32,1.54-0.49,2.43-0.49
		c0.92,0,1.74,0.16,2.49,0.49c0.74,0.32,1.37,0.79,1.9,1.4c0.52,0.61,0.92,1.35,1.2,2.23c0.28,0.88,0.42,1.86,0.42,2.97v0.31h-10.61
		c0.07,0.92,0.24,1.71,0.5,2.38c0.27,0.67,0.61,1.23,1.04,1.68c0.43,0.45,0.92,0.78,1.49,1c0.56,0.22,1.17,0.33,1.83,0.33
		c0.46,0,0.93-0.06,1.39-0.17c0.46-0.11,0.88-0.28,1.26-0.5c0.38-0.22,0.69-0.49,0.95-0.82c0.26-0.32,0.41-0.7,0.45-1.11h1.37
		c-0.13,0.64-0.35,1.2-0.68,1.7c-0.32,0.49-0.72,0.91-1.2,1.25c-0.48,0.34-1.01,0.6-1.62,0.77
		C719.12,366.08,718.47,366.17,717.79,366.17z M722.12,357.99c-0.23-1.54-0.76-2.7-1.57-3.46c-0.82-0.77-1.82-1.15-3.02-1.15
		c-0.59,0-1.14,0.09-1.65,0.28c-0.51,0.19-0.97,0.47-1.37,0.85c-0.4,0.38-0.74,0.86-1.01,1.44c-0.27,0.58-0.47,1.26-0.58,2.03
		H722.12z"/>
	<path d="M732.38,366.17c-0.89,0-1.71-0.16-2.44-0.47c-0.74-0.31-1.37-0.77-1.9-1.37c-0.53-0.6-0.94-1.34-1.23-2.23
		c-0.29-0.88-0.43-1.89-0.43-3.03c0-1.11,0.14-2.11,0.43-2.99c0.28-0.88,0.69-1.62,1.22-2.23c0.53-0.6,1.16-1.06,1.9-1.38
		s1.56-0.48,2.46-0.48c0.65,0,1.26,0.09,1.82,0.26c0.56,0.17,1.06,0.43,1.5,0.77c0.43,0.34,0.8,0.75,1.1,1.25
		c0.3,0.5,0.5,1.07,0.62,1.7h-1.36c-0.06-0.42-0.19-0.79-0.39-1.11c-0.2-0.32-0.47-0.6-0.79-0.82s-0.7-0.39-1.12-0.5
		c-0.42-0.11-0.88-0.17-1.37-0.17c-0.68,0-1.31,0.12-1.88,0.36s-1.06,0.59-1.46,1.07c-0.41,0.48-0.72,1.07-0.94,1.78
		s-0.33,1.54-0.33,2.48c0,0.95,0.11,1.78,0.33,2.5s0.53,1.31,0.94,1.78c0.41,0.48,0.89,0.83,1.46,1.07s1.19,0.36,1.88,0.36
		c0.45,0,0.89-0.06,1.3-0.17c0.42-0.11,0.79-0.27,1.12-0.49c0.33-0.21,0.61-0.48,0.83-0.8c0.22-0.32,0.36-0.69,0.42-1.12h1.36
		c-0.13,0.65-0.34,1.22-0.63,1.71c-0.3,0.49-0.66,0.91-1.1,1.24c-0.43,0.34-0.93,0.59-1.5,0.76
		C733.62,366.08,733.02,366.17,732.38,366.17z"/>
	<path d="M744.83,365.94c-0.2,0.02-0.39,0.04-0.59,0.05s-0.39,0.02-0.59,0.02c-0.6,0-1.09-0.08-1.45-0.25
		c-0.37-0.17-0.64-0.42-0.83-0.76c-0.19-0.34-0.32-0.76-0.37-1.26c-0.06-0.5-0.09-1.09-0.09-1.77v-8.24h-1.72v-1.39h1.72v-3.53h1.39
		v3.53h2.21v1.39h-2.21v8.37c0,0.56,0.04,1,0.12,1.33c0.08,0.33,0.2,0.59,0.37,0.77c0.16,0.18,0.36,0.3,0.6,0.35
		c0.24,0.05,0.51,0.08,0.81,0.08c0.13,0,0.24,0,0.33,0s0.2-0.01,0.31-0.02V365.94z"/>
</g>
<g>
	<path d="M220.85,233.82c1.96-0.94,4.27-1.15,6.48-0.39c4.36,1.49,6.72,6.15,5.42,10.53c8.72,4.78,18.92,5.82,28.29,3.14
		c1.77-4.67,2.17-9.99,0.16-15.35c-6.05-16.15-11.4-27.54-18-30.47c-4.81-2.14-6.01,3.93-8.27,11.75
		c-8.7-3.06-20.31-4.94-33.09-4.94c-0.08,0-0.16,0-0.24,0C205.19,218.3,211.83,227.36,220.85,233.82z"/>
	<path d="M342.03,211.97c5.75-6.68,5.05-16.99-2.26-22.68c-5.61-4.36-13.76-4.32-19.33,0.09c-7.52,5.96-7.98,16.92-1.4,23.5
		c3.04,3.04,7.02,4.57,11.01,4.6c14.71,27.35,15.46,60.17,2.29,88.09c-6.58-19.88-26.6-34.87-51.06-37.23V268h-18.95
		c0.14-1.03,0.23-2.06,0.23-3.12c0-4.38-1.25-8.49-3.42-12.14c-9.84,1.98-20.22,0.45-29.18-4.58c-2.22,1.8-5.28,2.46-8.18,1.47
		c-4.27-1.46-6.59-5.96-5.47-10.25c-10.66-7.76-18.34-18.74-22.14-31.05c-8,0.49-15.34,1.71-21.55,3.49
		c-1.91-6.49-3.31-11.13-7.68-9.27c-6.59,2.81-11.95,13.72-18,29.2c-2.49,6.37-1.3,12.68,1.63,17.81
		c-3.53,4.35-5.62,9.62-5.62,15.33c0,9.37,5.6,17.59,14.04,22.38c-8.35,8.89-13.36,20.19-13.36,32.51
		c0,27.42,24.75,49.84,56.05,51.64v0.13h81.59v-0.33c26.98-2.6,48.51-20.59,52.6-43.53c0.12,0.18,0.26,0.35,0.37,0.53
		C358.82,293.84,361.4,248.63,342.03,211.97z"/>
</g>
</svg>
